<?xml version="1.0" encoding="utf-8"?>
<svg version="1.1" id="Layer_1" xmlns="http://www.w3.org/2000/svg" xmlns:xlink="http://www.w3.org/1999/xlink" x="0px" y="0px"
width="428px" height="100px" viewBox="0 0 428 100" style="enable-background:new 0 0 428 100;" xml:space="preserve">
<style type="text/css">
.st0{fill:#74AADB;}
.st1{fill:#4E4E4E;}
.st2{fill:#FFFFFF;}
.st3{enable-background:new;}
.st4{fill:#4F4F4F;}
</style>
<g>
<circle class="st0" cx="52.2" cy="49.9" r="50"/>
<g>
<path class="st1" d="M112.9,64.8c2.6,1.7,6.3,2.9,10.3,2.9c5.9,0,9.4-3.1,9.4-7.6c0-4.1-2.4-6.6-8.4-8.8
c-7.3-2.7-11.8-6.5-11.8-12.8c0-7,5.8-12.2,14.5-12.2c4.5,0,7.9,1.1,9.8,2.2l-1.6,4.7c-1.4-0.9-4.4-2.1-8.4-2.1
c-6.1,0-8.4,3.7-8.4,6.7c0,4.2,2.7,6.3,8.9,8.6c7.6,2.9,11.4,6.6,11.4,13.2c0,6.9-5.1,13-15.6,13c-4.3,0-9-1.3-11.4-2.9
L112.9,64.8z"/>
<path class="st1" d="M153.1,31.9v7.7h8.4v4.5h-8.4v17.4c0,4,1.1,6.3,4.4,6.3c1.6,0,2.5-0.1,3.4-0.4l0.3,4.5
c-1.1,0.4-2.9,0.8-5.2,0.8c-2.7,0-4.9-0.9-6.3-2.5c-1.6-1.8-2.3-4.7-2.3-8.4V44.1h-5v-4.5h5v-6L153.1,31.9z"/>
<path class="st1" d="M194.9,63c0,3.4,0.1,6.3,0.3,8.8H190l-0.3-5.3h-0.1c-1.5,2.6-4.9,6-10.6,6c-5.1,0-11.1-2.9-11.1-14.1V39.6
h5.9v17.8c0,6.1,1.9,10.3,7.2,10.3c3.9,0,6.6-2.7,7.7-5.4c0.3-0.8,0.5-1.9,0.5-3V39.6h5.9V63H194.9z"/>
<path class="st1" d="M232.4,24.6v38.9c0,2.9,0.1,6.1,0.3,8.3h-5.2l-0.3-5.6H227c-1.7,3.6-5.6,6.3-10.8,6.3
c-7.8,0-13.8-6.6-13.8-16.4c-0.1-10.7,6.6-17.2,14.4-17.2c5,0,8.2,2.3,9.7,4.9h0.1V24.6H232.4z M226.6,52.7c0-0.7-0.1-1.7-0.3-2.5
c-0.9-3.7-4.1-6.7-8.4-6.7c-6.1,0-9.6,5.3-9.6,12.4c0,6.5,3.3,11.9,9.5,11.9c3.9,0,7.5-2.7,8.6-7c0.2-0.8,0.3-1.6,0.3-2.5v-5.6
C226.8,52.7,226.6,52.7,226.6,52.7z"/>
<path class="st1" d="M248.6,30.6c0,2-1.4,3.6-3.7,3.6c-2.1,0-3.5-1.6-3.5-3.6s1.5-3.7,3.7-3.7C247.2,26.9,248.6,28.5,248.6,30.6z
M242.1,71.8V39.6h5.9v32.2H242.1z"/>
<path class="st1" d="M286.9,55.5c0,11.9-8.3,17.1-16,17.1c-8.6,0-15.4-6.4-15.4-16.6c0-10.7,7.1-17,16-17
C280.6,39,286.9,45.7,286.9,55.5z M261.4,55.8c0,7,4,12.4,9.7,12.4c5.6,0,9.8-5.3,9.8-12.5c0-5.5-2.7-12.3-9.6-12.3
C264.4,43.4,261.4,49.7,261.4,55.8z"/>
</g>
<g>
<path class="st2" d="M69.3,65.9h5.4v4.2h-8.3L52.8,49.5h-7.3v16.3h7.2V70h-18v-4.2h6.1V29.7l-6.2-0.8v-4c2.3,0.5,4.4,0.9,6.9,0.9
c3.8,0,7.8-0.9,11.6-0.9c7.5,0,14.4,3.4,14.4,11.7c0,6.4-3.8,10.5-9.8,12.2L69.3,65.9z M45.5,45.5l3.9,0.1
c9.6,0.2,13.3-3.5,13.3-8.4c0-5.7-4.1-8-9.4-8c-2.5,0-5,0.2-7.8,0.5C45.5,29.7,45.5,45.5,45.5,45.5z"/>
</g>
</g>
<g class="st3">
<path class="st4" d="M311.4,27.6h11.5c8.8,0,14.3,3.5,14.3,10.7c0,4.7-2.4,8.3-7,9.6v0.3c5.9,0.9,9.8,4.6,9.8,10.7
c0,8.4-6.3,12.9-16.3,12.9h-12.3V27.6z M321.5,47.3c9.6,0,13.5-3.4,13.5-8.8c0-6.6-4.6-9-13.1-9h-8.4v17.8H321.5z M322.9,69.9
c9.2,0,15-3.4,15-10.9c0-6.7-5.5-9.9-15-9.9h-9.4v20.8H322.9z"/>
<path class="st4" d="M349.5,68.3V23.4h2v45.3c0,1.3,0.5,2,1.3,2c0.3,0,0.5,0,1.2-0.1l0.4,1.7c-0.5,0.1-0.9,0.3-1.7,0.3
C350.7,72.6,349.5,71.4,349.5,68.3z"/>
<path class="st4" d="M362.1,55.9c0-10.7,6.6-16.9,14.2-16.9c7.6,0,14.2,6.2,14.2,16.9c0,10.6-6.6,16.8-14.2,16.8
C368.7,72.6,362.1,66.4,362.1,55.9z M388.4,55.9c0-8.8-5.2-15-12.1-15s-12.1,6.2-12.1,15s5.2,14.9,12.1,14.9S388.4,64.7,388.4,55.9
z"/>
<path class="st4" d="M397.8,78.5c0-2.8,1.9-5.8,4.8-7.9v-0.3c-1.6-0.9-2.8-2.7-2.8-5.1c0-2.9,2.1-5,3.5-5.9v-0.3c-2-1.7-4-5-4-8.8
c0-6.4,4.8-11.3,11-11.3c1.7,0,3.2,0.4,4.2,0.8h10.7v1.9h-7.8c2.3,1.9,3.9,5,3.9,8.6c0,6.4-4.8,11.4-11,11.4c-1.9,0-4-0.5-5.5-1.5
c-1.5,1.2-2.8,2.7-2.8,5c0,2.4,1.3,4.4,6.3,4.4h7.1c7.1,0,10.3,2.3,10.3,7.2c0,5.4-5.8,10.7-14.7,10.7
C402.7,87.5,397.8,83.9,397.8,78.5z M423.5,76.9c0-3.8-2.7-5.2-7.8-5.2h-7.4c-0.4,0-2.1-0.1-3.9-0.5c-3.2,2.1-4.6,4.8-4.6,7.2
c0,4.3,4,7.2,11.1,7.2C418.7,85.6,423.5,81.2,423.5,76.9z M419.1,50.2c0-5.7-4-9.4-8.8-9.4s-8.8,3.6-8.8,9.4c0,5.6,4.2,9.5,8.8,9.5
C414.9,59.7,419.1,55.9,419.1,50.2z"/>
</g>
</svg>
